<svg width="111" height="111" viewBox="0 0 111 111" fill="none" xmlns="http://www.w3.org/2000/svg">
<g clip-path="url(#clip0)">
<path d="M107.477 76.1074C105.21 78.3687 102.137 79.6363 98.9351 79.6304H12.0656C8.86342 79.636 5.79042 78.3687 3.52344 76.1074L42.9043 36.7266L49.5643 41.5526C53.0924 44.1591 57.9083 44.1591 61.4364 41.5526L68.0964 36.7266L107.477 76.1074Z" fill="#FFA000"/>
<path d="M108.684 7.38394L68.0964 36.7266L61.4364 41.5526C57.9083 44.1591 53.0924 44.1591 49.5643 41.5526L42.9043 36.7266L2.26855 7.43235C4.52875 4.27156 8.17975 2.40093 12.0656 2.41315H98.9351C102.792 2.41654 106.416 4.26387 108.684 7.38394Z" fill="#FFD54F"/>
<path d="M2.26844 7.43237L42.9041 36.7266L3.5233 76.1075C1.26198 73.8405 -0.0055502 70.7675 0.000105372 67.5653V14.4783C-0.0105271 11.9485 0.783741 9.48082 2.26844 7.43237Z" fill="#FFC107"/>
<path d="M111 14.4784V67.5654C111.006 70.7675 109.739 73.8406 107.478 76.1075L68.0967 36.7267L108.684 7.38403C110.191 9.44243 111.002 11.9275 111 14.4784Z" fill="#FFC107"/>
<path d="M55.5004 108.587C70.1599 108.587 82.0438 96.7029 82.0438 82.0434C82.0438 67.3839 70.1599 55.5 55.5004 55.5C40.8409 55.5 28.957 67.3839 28.957 82.0434C28.957 96.7029 40.8409 108.587 55.5004 108.587Z" fill="#EB5757"/>
<path d="M65.1529 94.1084C64.5125 94.1095 63.8978 93.8562 63.4445 93.4037L44.1402 74.0994C43.2145 73.1409 43.241 71.6133 44.1995 70.6873C45.1347 69.7842 46.6171 69.7842 47.5521 70.6873L66.8563 89.9916C67.7972 90.9354 67.795 92.4633 66.8509 93.4042C66.4003 93.8539 65.7899 94.107 65.1529 94.1084Z" fill="#FAFAFA"/>
<path d="M45.8481 94.1085C44.5154 94.111 43.4332 93.0323 43.4307 91.6997C43.4295 91.0572 43.6847 90.4407 44.1397 89.9869L63.4439 70.6827C64.4024 69.757 65.9301 69.7834 66.856 70.7419C67.7591 71.6772 67.7591 73.1596 66.856 74.0946L47.5518 93.3988C47.1002 93.8519 46.4876 94.1071 45.8481 94.1085Z" fill="#FAFAFA"/>
</g>
<defs>
<clipPath id="clip0">
<rect width="111" height="111" fill="white"/>
</clipPath>
</defs>
</svg>
