<svg width="26" height="25" viewBox="0 0 26 25" fill="none" xmlns="http://www.w3.org/2000/svg">
<path d="M11.1689 3.948C5.00055 3.948 0 8.29551 0 13.6585C0 15.6349 0.680856 17.4723 1.84733 19.0059C1.69409 20.7779 1.25314 23.2737 0 24.4894C0 24.4894 3.8291 23.9682 6.423 22.4493C7.86374 23.0381 9.47163 23.369 11.1689 23.369C17.3372 23.369 22.3377 19.0215 22.3377 13.6585C22.3377 8.29551 17.3372 3.948 11.1689 3.948Z" fill="#FACC2B"/>
<path d="M11.1689 3.948C5.00055 3.948 0 8.29551 0 13.6585C0 15.6349 0.680856 17.4723 1.84733 19.0059C1.69409 20.7779 1.25314 23.2737 0 24.4894C0 24.4894 3.8291 23.9682 6.423 22.4493C7.86374 23.0381 9.47163 23.369 11.1689 23.369C17.3372 23.369 22.3377 19.0215 22.3377 13.6585C22.3377 8.29551 17.3372 3.948 11.1689 3.948Z" fill="#4885ED"/>
<path d="M11.1676 20.5931H11.4307L17.0324 8.08813H14.476L12.3331 12.864C11.8443 13.9396 11.3556 15.6713 11.3556 15.6713C11.3556 15.6713 10.848 13.9213 10.3593 12.864L8.15994 8.08813H5.34033L11.1676 20.5931Z" fill="white"/>
<path d="M25.9117 9.9387C25.9117 4.57572 20.9112 0.228149 14.7429 0.228149C10.2887 0.228149 6.44438 2.49572 4.65112 5.77531C6.48592 4.62682 8.73536 3.94794 11.1689 3.94794C17.3372 3.94794 22.3377 8.29545 22.3377 13.6585C22.3377 15.7099 21.6041 17.6113 20.3554 19.1792C22.8568 20.3511 25.9117 20.7696 25.9117 20.7696C24.6586 19.5543 24.2176 17.0585 24.0644 15.2861C25.2309 13.7525 25.9117 11.9151 25.9117 9.9387Z" fill="#FACC2B"/>
</svg>
