<svg width="85" height="103" viewBox="0 0 85 103" fill="none" xmlns="http://www.w3.org/2000/svg">
<path d="M70.5658 46.9011C67.9964 46.9011 65.9134 44.8079 65.9134 42.2261V32.8765C65.9134 19.9673 55.4988 9.50235 42.6519 9.50235C29.8049 9.50235 19.3899 19.9673 19.3899 32.8765V42.2261C19.3899 44.8079 17.3068 46.9011 14.7374 46.9011C12.168 46.9011 10.085 44.8079 10.085 42.2261V32.8765C10.085 14.8036 24.6652 0.152344 42.6514 0.152344C60.6376 0.152344 75.2179 14.8036 75.2179 32.8765V42.2261C75.2179 44.8083 73.1352 46.9011 70.5658 46.9011Z" fill="#607D8B"/>
<path d="M5.43275 37.5513H79.8702C82.4396 37.5513 84.5227 39.6444 84.5227 42.2263V98.3246C84.5227 100.906 82.4396 103 79.8702 103H5.43275C2.86336 103 0.780273 100.906 0.780273 98.3246V42.2263C0.78071 39.6444 2.86336 37.5513 5.43275 37.5513Z" fill="#455A64"/>
<path d="M42.6515 84.3004C40.0821 84.3004 37.999 82.2072 37.999 79.6254V65.6008C37.999 63.0189 40.0821 60.9258 42.6515 60.9258C45.2209 60.9258 47.3035 63.0189 47.3035 65.6008V79.6254C47.3035 82.2072 45.2209 84.3004 42.6515 84.3004Z" fill="#ECEFF1"/>
<path d="M42.6516 74.9501C37.5128 74.9501 33.3467 70.7642 33.3467 65.6005C33.3467 60.4369 37.5124 56.251 42.6512 56.251C47.79 56.251 51.9557 60.4369 51.9557 65.6005C51.9561 70.7642 47.7904 74.9501 42.6516 74.9501Z" fill="#FAFAFA"/>
</svg>
