<?xml version="1.0" encoding="UTF-8"?>
<svg width="904px" height="618px" viewBox="0 0 904 618" version="1.1" xmlns="http://www.w3.org/2000/svg" xmlns:xlink="http://www.w3.org/1999/xlink">
    <!-- Generator: Sketch 52.6 (67491) - http://www.bohemiancoding.com/sketch -->
    <title>undraw_instat_analysis_ajld</title>
    <desc>Created with Sketch.</desc>
    <g id="Page-1" stroke="none" stroke-width="1" fill="none" fill-rule="evenodd">
        <g id="undraw_instat_analysis_ajld">
            <path d="M512.58565,177.467 C511.70206,179.55458 510.83828,181.69548 510.01817,183.82911 L507.87197,183.00417 C508.70133,180.84644 509.57451,178.68269 510.46788,176.57117 L512.58565,177.467 Z" id="Path" fill="#E6E6E6"></path>
            <path d="M889.8968,329.84267 C888.78789,332.72767 887.60475,335.61182 886.38007,338.41625 L884.27307,337.49571 C886.10707,333.29692 887.83551,328.94089 889.38929,324.60433 L891.55402,325.38106 C891.020387,326.869473 890.46798,328.356677 889.8968,329.84267 Z M895.8368,312.02621 L893.62405,311.39942 C894.88248,306.96136 895.99998,302.43305 896.94822,297.9383 L899.19769,298.41323 C898.23866,302.95795 897.10851,307.53793 895.8368,312.02621 Z M880.33991,351.07037 C878.18775,355.20821 875.86882,359.31683 873.44725,363.28256 L871.4857,362.08356 C873.87892,358.16347 876.17158,354.10128 878.29892,350.00923 L880.33991,351.07037 Z M901.61763,284.60095 L899.33982,284.28111 C899.9782,279.72259 900.46495,275.08294 900.78638,270.49161 L903.07996,270.65152 C902.75466,275.2967 902.263,279.98979 901.61763,284.60095 Z M865.73,374.99256 C863.03715,378.78786 860.17462,382.53956 857.22356,386.14303 L855.44494,384.6872 C858.36294,381.12278 861.19229,377.41362 863.85548,373.66104 L865.73,374.99256 Z M903.57536,256.63593 L901.27602,256.63493 C901.27914,252.03311 901.12241,247.37465 900.81053,242.79127 L903.10484,242.63634 C903.41977,247.27146 903.57844,251.98118 903.57541,256.63596 L903.57536,256.63593 Z M847.95447,396.69607 C844.75417,400.09366 841.39881,403.41901 837.98054,406.57947 L836.41894,404.89072 C839.79808,401.76635 843.11621,398.4784 846.28012,395.11915 L847.95447,396.69607 Z M901.67272,228.69781 L899.39472,229.01056 C898.76583,224.45087 897.97257,219.85566 897.03465,215.3552 L899.28634,214.88559 C900.2344,219.43808 901.0367,224.08487 901.67277,228.69784 L901.67272,228.69781 Z M827.35416,415.75081 C823.71982,418.67546 819.94287,421.50801 816.12567,424.16992 L814.81075,422.28372 C818.58396,419.6518 822.31964,416.8515 825.91375,413.95951 L827.35416,415.75081 Z M895.9604,201.26791 L893.74663,201.8892 C892.50251,197.45627 891.08976,193.01144 889.54693,188.67659 L891.71278,187.90459 C893.27365,192.28968 894.70293,196.78536 895.96045,201.26795 L895.9604,201.26791 Z M804.349,431.79983 C800.35867,434.19554 796.232,436.48593 792.08244,438.60754 L791.03644,436.56008 C795.13838,434.46226 799.21909,432.1975 803.16557,429.82824 L804.349,431.79983 Z M886.56338,174.85983 L884.45495,175.7766 C882.61882,171.55393 880.61456,167.34 878.49586,163.25169 L880.53817,162.19403 C882.68,166.32849 884.707,170.58965 886.5634,174.85979 L886.56338,174.85983 Z M779.38256,444.56191 C775.0998,446.39478 770.70046,448.10226 766.30837,449.63752 L765.55006,447.46731 C769.89338,445.94939 774.24231,444.26042 778.47739,442.44831 L779.38256,444.56191 Z M873.65947,149.9651 L871.69489,151.15847 C869.305,147.22812 866.7447,143.32488 864.08618,139.55829 L865.96432,138.23307 C868.65364,142.04156 871.24248,145.98945 873.65947,149.9651 Z M752.92213,453.81017 C748.43193,455.04371 743.84328,456.13597 739.28506,457.0583 L738.82835,454.80436 C743.33563,453.89251 747.87274,452.81236 752.31414,451.5931 L752.92213,453.81017 Z M857.48013,127.05174 L855.69794,128.50285 C852.78765,124.92816 849.71694,121.41085 846.56935,118.04685 L848.24817,116.47663 C851.4318,119.87856 854.53763,123.43578 857.48017,127.05174 L857.48013,127.05174 Z M725.46093,459.36613 C720.84779,459.97448 716.15522,460.42962 711.5142,460.71934 L711.37136,458.42487 C715.95967,458.13773 720.59956,457.68821 725.16067,457.08687 L725.46093,459.36613 Z M838.30877,106.55935 L836.74277,108.24272 C833.36756,105.10154 829.83995,102.03772 826.257,99.1366 L827.704,97.34975 C831.32847,100.28365 834.8968,103.38239 838.30877,106.55935 Z M697.51377,461.11074 C692.85612,461.08074 688.1412,460.88682 683.49985,460.53593 L683.67395,458.243 C688.2625,458.59043 692.92317,458.78155 697.52895,458.812 L697.51377,461.11074 Z M816.50265,88.90674 L815.1821,90.79028 C811.41123,88.14652 807.50118,85.60201 803.5611,83.22638 L804.74831,81.25791 C808.73339,83.66047 812.68762,86.23399 816.50267,88.90676 L816.50265,88.90674 Z M669.56082,458.9934 C664.95474,458.32231 660.31155,457.48179 655.76134,456.49479 L656.2486,454.24765 C660.74778,455.22346 665.33809,456.05448 669.89194,456.71753 L669.56082,458.9934 Z M792.498,74.4348 L791.4484,76.48022 C787.35821,74.38246 783.13714,72.39677 778.9024,70.57661 L779.8104,68.46472 C784.09237,70.30426 788.36108,72.31307 792.498,74.4348 Z M642.16647,453.05546 C637.70176,451.76154 633.2171,450.29577 628.837,448.6988 L629.62526,446.53849 C633.95655,448.11849 638.39115,449.56749 642.80626,450.84649 L642.16647,453.05546 Z M765.98147,65.53564 C761.63395,64.00411 757.18364,62.60387 752.75441,61.3741 L753.36887,59.15902 C757.84887,60.40228 762.34909,61.81811 766.74562,63.36602 L765.98147,65.53564 Z M739.27428,58.12442 C734.75714,57.20004 730.15772,56.42085 725.6024,55.81016 L725.90805,53.53171 C730.51496,54.149 735.16713,54.93644 739.73583,55.87221 L739.27428,58.12442 Z M711.80409,54.44442 C707.21437,54.15007 702.55649,54.01113 697.96009,54.03296 L697.94896,51.73378 C702.5983,51.71187 707.30925,51.85195 711.95084,52.15061 L711.80409,54.44442 Z M684.11659,54.57788 C679.52378,54.91741 674.88837,55.42097 670.33953,56.07328 L670.01283,53.79714 C674.61391,53.13725 679.30183,52.62859 683.94667,52.28502 L684.11659,54.57788 Z M656.69365,58.51036 C652.18678,59.47589 647.66133,60.60868 643.24465,61.87468 L642.61065,59.66568 C647.07726,58.38399 651.65394,57.23842 656.21214,56.26135 L656.69365,58.51036 Z M630.05365,66.15124 C625.7257,67.71836 621.39556,69.45545 617.18265,71.31458 L616.25428,69.21131 C620.51502,67.33088 624.8942,65.57416 629.2708,63.98845 L630.05365,66.15124 Z M604.69242,77.34471 C600.61124,79.4902 596.55565,81.80071 592.63904,84.21271 L591.43325,82.2554 C595.3941,79.81588 599.49551,77.4785 603.62235,75.30966 L604.69242,77.34471 Z M581.08142,91.8859 C577.32882,94.56904 573.62551,97.41185 570.07488,100.3362 L568.6124,98.56167 C572.20417,95.60382 575.94875,92.72876 579.74483,90.01542 L581.08142,91.8859 Z M559.67255,109.5239 C556.3232,112.6928 553.04446,116.01754 549.92577,119.4062 L548.23418,117.84912 C551.388,114.42224 554.7049,111.05925 558.09201,107.85312 L559.67255,109.5239 Z M540.88325,129.93928 C538.00702,133.5342 535.22014,137.27528 532.59887,141.05964 L530.7084,139.75086 C533.35973,135.92276 536.17876,132.13867 539.0874,128.50328 L540.88325,129.93928 Z M525.10135,152.72541 C522.74966,156.67831 520.50291,160.76656 518.42335,164.87819 L516.37141,163.8393 C518.47471,159.68148 520.74721,155.5466 523.12489,151.54957 L525.10135,152.72541 Z" id="Shape" fill="#E6E6E6" fill-rule="nonzero"></path>
            <path d="M616.45365,441.21413 L615.51884,443.3145 C613.39791,442.37058 611.28238,441.38604 609.23037,440.38803 L610.23547,438.3207 C612.26439,439.30683 614.35642,440.28056 616.45365,441.21413 Z" id="Path" fill="#E6E6E6"></path>
            <rect id="Rectangle" fill="#3F3D56" x="0" y="266.69446" width="550" height="350.83333"></rect>
            <path d="M476.227,617.20512 C475.96316,616.77401 469.74229,606.38679 467.58558,584.8175 C465.60739,565.02881 466.87941,531.67343 484.17795,485.14541 C516.94953,397.0012 476.62556,325.88159 476.21353,325.17317 L478.20295,324.01903 C478.30736,324.19866 488.71253,342.33137 494.85931,371.20495 C502.981122,409.485222 500.023662,449.28746 486.33353,485.94702 C453.61809,573.9408 477.94024,615.59629 478.18953,616.0072 L476.227,617.20512 Z" id="Path" fill="#E6E6E6"></path>
            <circle id="Oval" fill="#6C63FF" cx="463.41253" cy="305.05216" r="14.94537"></circle>
            <circle id="Oval" fill="#E6E6E6" cx="510.54792" cy="360.23506" r="14.94537"></circle>
            <circle id="Oval" fill="#6C63FF" cx="478.3579" cy="397.02366" r="14.94537"></circle>
            <circle id="Oval" fill="#6C63FF" cx="517.44579" cy="428.06404" r="14.94537"></circle>
            <circle id="Oval" fill="#E6E6E6" cx="466.86146" cy="476.34907" r="14.94537"></circle>
            <path d="M485.25576,617.75524 C485.25576,617.75524 470.3104,580.96665 515.1465,553.37524 L485.25576,617.75524 Z" id="Path" fill="#E6E6E6"></path>
            <path d="M466.87528,617.08791 C466.87528,617.08791 460.07351,577.9663 407.42893,578.3016 L466.87528,617.08791 Z" id="Path" fill="#E6E6E6"></path>
            <path d="M317.43237,344.98527 C329.215196,350.160237 339.96135,357.43007 349.14874,366.44157 L358.37622,357.21409 C347.565256,346.586046 334.825382,338.118778 320.84022,332.26664 L317.43237,344.98527 Z" id="Path" fill="#6C63FF"></path>
            <path d="M174.02747,409.84422 C178.422927,396.146987 185.560692,383.487883 195.006,372.63798 L185.7632,363.39518 C174.72065,375.88714 166.430821,390.563305 161.4327,406.46946 L174.02747,409.84422 Z" id="Path" fill="#6C63FF"></path>
            <path d="M369.64783,369.98411 L360.33093,379.301 C367.524393,389.038367 372.992053,399.93886 376.49548,411.52714 L389.07599,408.15623 C384.970117,394.358606 378.386738,381.423695 369.64783,369.98411 Z" id="Path" fill="#E6E6E6"></path>
            <path d="M197.89056,351.48087 L207.14886,360.73918 C218.035463,351.634835 230.641045,344.811666 244.21661,340.67509 L240.84561,328.09446 C225.059566,332.824749 210.430959,340.789134 197.89056,351.48087 Z" id="Path" fill="#6C63FF"></path>
            <path d="M169,442.11112 C168.999907,436.855465 169.389236,431.607027 170.16479,426.40891 L157.531,423.02366 C154.910056,439.262753 155.660294,455.86755 159.735,471.80412 L172.30964,468.43473 C170.106631,459.833755 168.994683,450.989746 169,442.11112 Z" id="Path" fill="#6C63FF"></path>
            <path d="M301.12152,544.85093 C292.583953,547.020502 283.80892,548.115702 275,548.11112 C271.73669,548.11112 268.5097,547.95475 265.32074,547.66465 L261.91064,560.39134 C276.167099,561.961933 290.589789,560.957332 304.49084,557.42545 L301.12152,544.85093 Z" id="Path" fill="#E6E6E6"></path>
            <path d="M177.87415,484.54344 L165.15552,487.95144 C171.28377,502.594863 180.275426,515.866593 191.60272,526.98764 L200.8302,517.76016 C191.128719,508.25419 183.336495,496.979074 177.87415,484.54344 Z" id="Path" fill="#6C63FF"></path>
            <path d="M392.73883,424.77451 L380.08183,428.16593 C381.596946,439.616994 381.235103,451.238474 379.01054,462.5731 L391.61009,465.9491 C394.357548,452.391965 394.739437,438.46177 392.73887,424.77447 L392.73883,424.77451 Z" id="Path" fill="#E6E6E6"></path>
            <path d="M260.84723,337.05845 C274.365946,335.241357 288.108056,336.04338 301.32361,339.42075 L304.69299,326.84611 C289.265761,322.902818 273.207633,322.071731 257.45575,324.40135 L260.84723,337.05845 Z" id="Path" fill="#6C63FF"></path>
            <path d="M248.5,544.7573 C236.09793,541.547235 224.383552,536.107029 213.92938,528.70256 L204.58771,538.04424 C216.749791,546.997615 230.511251,553.543612 245.13123,557.32982 L248.5,544.7573 Z" id="Path" fill="#E6E6E6"></path>
            <path d="M355.29889,529.93083 L346.0625,520.69444 C337.527139,528.42356 327.792664,534.714523 317.23956,539.32144 L320.64612,552.03488 C333.390988,546.731226 345.116561,539.251805 355.29889,529.93083 Z" id="Path" fill="#E6E6E6"></path>
            <path d="M374.39862,478.93705 C370.445251,489.556961 364.81453,499.474237 357.72089,508.3112 L367,517.59031 C375.647825,507.068499 382.422449,495.138325 387.02789,482.32102 L374.39862,478.93705 Z" id="Path" fill="#E6E6E6"></path>
            <rect id="Rectangle" fill="#E6E6E6" x="12" y="286.61113" width="58" height="23"></rect>
            <rect id="Rectangle" fill="#6C63FF" x="12" y="321.61113" width="58" height="23"></rect>
            <path d="M362.9685,55.73577 C362.9685,55.73577 369.50064,77.19851 365.76799,83.73065 C362.03534,90.26279 372.30012,104.26023 389.09705,97.72809 C405.89398,91.19595 406.82714,83.73065 406.82714,83.73065 C406.82714,83.73065 400.295,73.46586 398.42867,52.00312 L362.9685,55.73577 Z" id="Path" fill="#FFB9B9"></path>
            <path d="M277.58412,266.16393 C277.58412,266.16393 243.99027,282.96085 258.92087,305.35675 C267.59945,318.37462 284.1601,343.68851 296.50754,362.60575 C306.841517,378.437487 314.766748,395.716307 320.02383,413.87665 L322.37593,422.00208 L331.70755,433.20003 L351.30397,410.80413 C351.30397,410.80413 322.37597,357.61387 322.37597,347.34913 C322.37597,337.08439 299.04686,304.42356 299.04686,304.42356 L322.37593,289.49296 C322.37593,289.49296 296.24738,259.63179 277.58412,266.16393 Z" id="Path" fill="#FFB9B9"></path>
            <path d="M386.76414,324.02001 C386.76414,324.02001 387.69731,350.14856 388.63047,360.41335 C389.40033,368.8818 381.91347,392.59346 384.50932,418.97268 C386.093538,436.038955 385.904002,453.223498 383.94375,470.25068 L380.232,504.12038 L408.22688,506.91987 L417.55851,430.40054 C417.55851,430.40054 423.15751,376.27711 420.35799,358.54702 L421.29116,321.22052 C421.29116,321.22052 400.76158,313.75522 386.76414,324.02001 Z" id="Path" fill="#FFB9B9"></path>
            <path d="M336.84,215.30656 C336.84,215.30656 271.51862,257.29887 270.58546,270.36315 C270.58546,270.36315 307.91196,266.6305 308.84512,299.29115 C308.84512,299.29115 331.24102,290.89269 336.84,289.02636 C342.43898,287.16003 372.30017,267.56362 372.30017,267.56362 C372.30017,267.56362 384.43129,276.89525 384.43129,291.82585 C384.43129,306.75645 383.49812,332.885 384.43129,334.75133 C385.36446,336.61766 406.82719,309.55594 424.55729,332.885 L436.6884,268.49678 C436.6884,268.49678 440.42105,229.30396 432.95575,226.50447 L380.69865,206.90806 L336.84,215.30656 Z" id="Path" fill="#2F2E41"></path>
            <circle id="Oval" fill="#FFB9B9" cx="376.49935" cy="39.40543" r="27.99488"></circle>
            <path d="M369.50064,88.39646 C369.50064,88.39646 401.07735,96.73625 405.35199,80.90182 C405.35199,80.90182 444.15364,88.39646 450.68578,113.59182 C457.21792,138.78718 434.82201,199.44282 434.82201,201.3091 C434.82201,203.17538 453.48527,214.37338 445.0868,219.97235 C436.68833,225.57132 429.22304,219.03919 432.95569,226.50449 C436.68834,233.96979 443.22048,235.83611 437.6215,237.70244 C432.02252,239.56877 398.42867,210.64073 372.30012,218.10603 C346.17157,225.57133 333.1073,219.97235 333.1073,219.97235 L321.39136,118.71321 C320.461983,110.830867 323.593124,103.015014 329.70758,97.95453 C335.55558,93.14109 343.31492,87.9406 350.83738,86.53014 C365.76799,83.73065 366.38827,82.19814 366.38827,82.19814 L369.50064,88.39646 Z" id="Path" fill="#D0CDE1"></path>
            <path d="M339.63943,251.69991 C339.63943,251.69991 348.0379,299.2912 359.23585,292.75906 C370.4338,286.22692 356.43636,251.69991 356.43636,251.69991 L339.63943,251.69991 Z" id="Path" fill="#FFB9B9"></path>
            <path d="M378.622,257.85856 C378.622,257.85856 364.0702,303.94229 377.01946,303.32619 C389.96872,302.71009 393.51666,265.62296 393.51666,265.62296 L378.622,257.85856 Z" id="Path" fill="#FFB9B9"></path>
            <path d="M327.04174,420.13575 C327.04174,420.13575 320.5096,412.67045 316.77695,422.93524 C313.0443,433.20003 302.77951,446.2643 302.77951,446.2643 C302.77951,446.2643 280.38361,471.45969 296.24738,472.39285 C312.11115,473.32601 334.50704,449.99695 334.50704,449.99695 L360.63559,425.73472 C360.63559,425.73472 351.97559,404.64434 347.90712,404.45816 C343.83865,404.27198 344.77183,429.46737 327.04174,420.13575 Z" id="Path" fill="#2F2E41"></path>
            <path d="M387.69731,497.58824 C387.69731,497.58824 381.12096,499.508 381.60965,491.5494 C381.60965,491.5494 357.8361,504.1204 364.36824,513.452 C370.90038,522.7836 378.36568,532.11525 378.36568,532.11525 C378.36568,532.11525 412.89268,551.71167 415.69218,547.04585 C418.49168,542.38003 418.49167,533.04842 416.62534,529.31577 C414.75901,525.58312 405.42734,519.05098 408.22688,513.452 C411.02642,507.85302 407.29372,492.92243 402.62788,492.92243 C397.96204,492.92243 387.69731,497.58824 387.69731,497.58824 Z" id="Path" fill="#2F2E41"></path>
            <path d="M352.06859,15.68406 C352.06859,15.68406 361.07425,-3.82822 378.33512,0.67462 C395.59599,5.17746 405.35212,11.9317 406.10259,18.68595 C406.85306,25.4402 405.72735,35.57158 405.72735,35.57158 C405.72735,35.57158 403.85117,21.68784 391.84362,24.68973 C379.83607,27.69162 361.07425,25.4402 361.07425,25.4402 L358.07237,52.4572 C358.07237,52.4572 354.69524,47.57913 350.94288,50.58102 C347.19052,53.58291 340.061,21.68784 352.06859,15.68406 Z" id="Path" fill="#2F2E41"></path>
            <path d="M434.822,112.65869 C434.822,112.65869 412.4261,173.31425 414.29243,180.77955 C416.15876,188.24485 414.29243,189.17802 411.49294,191.04434 C408.69345,192.91066 401.22815,212.50708 401.22815,212.50708 C401.22815,212.50708 396.56234,223.70503 392.82969,226.50452 C389.09704,229.30401 389.09704,236.76931 389.09704,236.76931 C389.09704,236.76931 379.76541,246.10093 381.63174,247.96726 C383.49807,249.83359 383.49806,252.63307 379.76541,255.43256 C376.03276,258.23205 372.30011,261.9647 374.16641,262.89786 C376.03271,263.83102 389.09701,274.09581 392.82966,273.16265 C396.56231,272.22949 390.96333,268.49683 395.62915,266.63051 C400.29497,264.76419 403.09445,261.9647 401.22815,261.03151 C399.36185,260.09832 393.76285,260.09835 399.36183,258.23203 C404.96081,256.36571 424.55722,244.23459 431.08935,229.30403 C437.62148,214.37347 468.91894,124.04003 450.00415,111.35066 C450.00416,111.35064 442.28731,101.46074 434.822,112.65869 Z" id="Path" fill="#D0CDE1"></path>
            <path d="M331.241,102.3939 L330.862,102.5518 C323.705883,105.535965 318.482423,111.858064 316.9015,119.44858 C314.86382,129.20158 312.85894,143.30821 314.44404,156.51733 C317.24352,179.84639 319.10985,190.11118 322.8425,197.57648 C326.57515,205.04178 327.50831,202.24229 326.57515,207.84127 C325.64199,213.44025 320.97615,208.77443 325.64199,216.23973 C330.30783,223.70503 333.10729,221.83873 331.24099,225.57136 C329.37469,229.30399 326.57518,229.30401 330.30783,233.96982 C334.04048,238.63563 334.04048,240.50196 334.97364,242.36828 C335.9068,244.2346 338.70629,258.23205 338.70629,258.23205 C338.70629,258.23205 353.63689,253.56623 362.03536,255.43256 C362.03536,255.43256 354.57005,242.36828 356.43636,239.5688 C358.30267,236.76932 361.10217,235.83614 358.30269,233.03666 C355.50321,230.23718 350.83738,231.17033 355.5032,228.37084 C360.16902,225.57135 351.77055,196.64332 351.77055,196.64332 L331.241,102.3939 Z" id="Path" fill="#D0CDE1"></path>
            <polygon id="Path" fill="#3F3D56" points="584.752 316.648 583.297 315.276 693.021 198.835 782.335 198.835 782.335 200.835 693.885 200.835"></polygon>
            <rect id="Rectangle" fill="#6C63FF" x="721.59146" y="214.12713" width="105.40854" height="3.57317"></rect>
            <rect id="Rectangle" fill="#6C63FF" x="721.59146" y="229.31311" width="105.40854" height="3.57317"></rect>
            <rect id="Rectangle" fill="#6C63FF" x="721.59146" y="244.49908" width="105.40854" height="3.57317"></rect>
            <rect id="Rectangle" fill="#6C63FF" x="710.59146" y="505.12713" width="105.40854" height="3.57317"></rect>
            <rect id="Rectangle" fill="#6C63FF" x="710.59146" y="520.31311" width="105.40854" height="3.57317"></rect>
            <rect id="Rectangle" fill="#6C63FF" x="710.59146" y="535.49908" width="105.40854" height="3.57317"></rect>
            <polygon id="Path" fill="#3F3D56" points="771 487.199 665.475 487.199 665.177 486.766 583.177 367.766 584.823 366.632 666.525 485.199 771 485.199"></polygon>
        </g>
    </g>
</svg>